<svg xmlns="http://www.w3.org/2000/svg" width="1024" height="1024" viewBox="0 0 1024 1024">
<rect width="100%" height="100%" fill="none"/>
<path d="M 365,122 L 364,123 L 363,123 L 362,124 L 361,124 L 362,124 L 363,123 L 364,123 L 365,122 L 367,122 Z" fill="gold" stroke="gold" stroke-width="1"/>
<path d="M 507,99 L 506,100 L 477,100 L 476,101 L 467,101 L 466,102 L 459,102 L 458,103 L 450,103 L 449,104 L 444,104 L 443,105 L 440,105 L 439,106 L 435,106 L 434,107 L 430,107 L 429,108 L 426,108 L 425,109 L 420,109 L 419,110 L 416,110 L 415,111 L 411,111 L 410,112 L 408,112 L 407,113 L 404,113 L 403,114 L 399,114 L 398,115 L 395,115 L 394,116 L 392,116 L 391,117 L 389,117 L 388,118 L 386,118 L 385,119 L 383,119 L 382,120 L 380,120 L 379,121 L 377,121 L 376,122 L 374,122 L 373,123 L 371,123 L 370,124 L 368,124 L 367,125 L 366,125 L 365,126 L 363,126 L 362,127 L 360,127 L 359,128 L 357,128 L 356,129 L 355,129 L 354,130 L 353,130 L 352,131 L 350,131 L 349,132 L 348,132 L 347,133 L 346,133 L 345,134 L 343,134 L 342,135 L 341,135 L 340,136 L 339,136 L 338,137 L 337,137 L 336,138 L 335,138 L 334,139 L 333,139 L 332,140 L 331,140 L 330,141 L 329,141 L 328,142 L 326,142 L 325,143 L 324,143 L 322,145 L 321,145 L 320,146 L 319,146 L 318,147 L 317,147 L 316,148 L 315,148 L 314,149 L 313,149 L 311,151 L 310,151 L 309,152 L 308,152 L 306,154 L 305,154 L 304,155 L 303,155 L 302,156 L 301,156 L 300,157 L 299,157 L 297,159 L 296,159 L 294,161 L 293,161 L 291,163 L 290,163 L 289,164 L 288,164 L 286,166 L 285,166 L 283,168 L 282,168 L 280,170 L 279,170 L 277,172 L 276,172 L 273,175 L 272,175 L 270,177 L 269,177 L 266,180 L 265,180 L 263,182 L 262,182 L 259,185 L 258,185 L 254,189 L 253,189 L 247,195 L 246,195 L 240,201 L 239,201 L 224,216 L 223,216 L 219,220 L 219,221 L 205,235 L 205,236 L 202,239 L 202,240 L 200,242 L 199,242 L 199,243 L 196,246 L 196,247 L 190,253 L 190,254 L 186,258 L 186,259 L 183,262 L 183,263 L 181,265 L 181,266 L 178,269 L 178,270 L 177,271 L 177,272 L 174,275 L 174,276 L 172,278 L 172,279 L 170,281 L 170,282 L 168,284 L 168,285 L 166,287 L 166,288 L 165,289 L 165,290 L 163,292 L 163,293 L 162,294 L 162,295 L 160,297 L 160,298 L 159,299 L 159,300 L 158,301 L 158,302 L 156,304 L 156,305 L 155,306 L 155,307 L 154,308 L 154,309 L 153,310 L 153,311 L 151,313 L 151,314 L 150,315 L 150,316 L 149,317 L 149,318 L 148,319 L 148,320 L 147,321 L 147,322 L 146,323 L 146,324 L 145,325 L 145,326 L 144,327 L 144,328 L 143,329 L 143,330 L 142,331 L 142,333 L 141,334 L 141,335 L 140,336 L 140,337 L 139,338 L 139,340 L 138,341 L 138,342 L 137,343 L 137,344 L 136,345 L 136,347 L 135,348 L 135,349 L 134,350 L 134,352 L 133,353 L 133,354 L 132,355 L 132,357 L 131,358 L 131,360 L 130,361 L 130,362 L 129,363 L 129,365 L 128,366 L 128,368 L 127,369 L 127,370 L 126,371 L 126,373 L 125,374 L 125,377 L 124,378 L 124,380 L 123,381 L 123,383 L 122,384 L 122,386 L 121,387 L 121,389 L 120,390 L 120,393 L 119,394 L 119,397 L 118,398 L 118,401 L 117,402 L 117,405 L 116,406 L 116,410 L 115,411 L 115,415 L 114,416 L 114,419 L 113,420 L 113,425 L 112,426 L 112,429 L 111,430 L 111,435 L 110,436 L 110,441 L 109,442 L 109,451 L 108,452 L 108,457 L 107,458 L 107,468 L 106,469 L 106,487 L 105,488 L 105,491 L 106,492 L 106,497 L 105,498 L 105,502 L 106,503 L 105,504 L 106,505 L 105,506 L 105,507 L 106,508 L 106,527 L 107,528 L 107,539 L 108,540 L 108,549 L 109,550 L 109,556 L 110,557 L 110,562 L 111,563 L 111,568 L 112,569 L 112,573 L 113,574 L 113,578 L 114,579 L 114,583 L 115,584 L 115,587 L 116,588 L 116,591 L 117,592 L 117,596 L 118,597 L 118,599 L 119,600 L 119,603 L 120,604 L 120,607 L 121,608 L 121,611 L 122,612 L 122,614 L 123,615 L 123,617 L 124,618 L 124,620 L 125,621 L 125,623 L 126,624 L 126,626 L 127,627 L 127,629 L 128,630 L 128,631 L 129,632 L 129,633 L 130,634 L 130,636 L 131,637 L 131,638 L 132,639 L 132,641 L 133,642 L 133,644 L 134,645 L 134,646 L 135,647 L 135,649 L 136,650 L 136,651 L 137,652 L 137,654 L 139,656 L 139,657 L 140,658 L 140,660 L 141,661 L 141,662 L 142,663 L 142,664 L 143,665 L 143,667 L 144,668 L 144,669 L 146,671 L 146,672 L 147,673 L 147,675 L 149,677 L 149,678 L 150,679 L 150,681 L 151,682 L 151,683 L 152,684 L 152,685 L 154,687 L 154,688 L 155,689 L 155,690 L 156,691 L 156,692 L 158,694 L 158,695 L 159,696 L 159,697 L 160,698 L 160,699 L 162,701 L 162,702 L 163,703 L 163,704 L 165,706 L 165,707 L 166,708 L 166,709 L 168,711 L 168,712 L 170,714 L 170,715 L 172,717 L 172,718 L 174,720 L 174,721 L 176,723 L 176,724 L 180,728 L 180,729 L 182,731 L 182,732 L 187,737 L 187,738 L 190,741 L 190,742 L 194,746 L 194,747 L 200,753 L 200,754 L 205,759 L 205,760 L 215,770 L 215,771 L 216,771 L 220,775 L 220,776 L 231,787 L 232,787 L 236,791 L 236,792 L 238,794 L 239,794 L 245,800 L 246,800 L 251,805 L 252,805 L 257,810 L 258,810 L 263,815 L 264,815 L 267,818 L 268,818 L 272,822 L 273,822 L 276,825 L 277,825 L 279,827 L 280,827 L 283,830 L 284,830 L 286,832 L 287,832 L 289,834 L 290,834 L 292,836 L 293,836 L 295,838 L 296,838 L 298,840 L 299,840 L 300,841 L 301,841 L 303,843 L 304,843 L 306,845 L 307,845 L 308,846 L 309,846 L 311,848 L 312,848 L 313,849 L 314,849 L 316,851 L 317,851 L 318,852 L 319,852 L 320,853 L 321,853 L 322,854 L 323,854 L 324,855 L 325,855 L 326,856 L 327,856 L 328,857 L 329,857 L 330,858 L 331,858 L 332,859 L 333,859 L 334,860 L 335,860 L 336,861 L 337,861 L 338,862 L 339,862 L 340,863 L 341,863 L 342,864 L 343,864 L 344,865 L 345,865 L 346,866 L 347,866 L 348,867 L 349,867 L 350,868 L 351,868 L 352,869 L 353,869 L 354,870 L 356,870 L 357,871 L 358,871 L 359,872 L 360,872 L 361,873 L 363,873 L 364,874 L 365,874 L 366,875 L 368,875 L 369,876 L 370,876 L 371,877 L 373,877 L 374,878 L 376,878 L 377,879 L 378,879 L 379,880 L 380,880 L 381,881 L 383,881 L 384,882 L 386,882 L 387,883 L 389,883 L 390,884 L 393,884 L 394,885 L 396,885 L 397,886 L 399,886 L 400,887 L 402,887 L 403,888 L 406,888 L 407,889 L 409,889 L 410,890 L 413,890 L 414,891 L 417,891 L 418,892 L 420,892 L 421,893 L 425,893 L 426,894 L 429,894 L 430,895 L 434,895 L 435,896 L 438,896 L 439,897 L 444,897 L 445,898 L 451,898 L 452,899 L 459,899 L 460,900 L 466,900 L 467,901 L 476,901 L 477,902 L 487,902 L 488,903 L 533,903 L 534,902 L 543,902 L 544,901 L 553,901 L 554,900 L 562,900 L 563,899 L 569,899 L 570,898 L 574,898 L 575,897 L 580,897 L 581,896 L 585,896 L 586,895 L 590,895 L 591,894 L 594,894 L 595,893 L 598,893 L 599,892 L 602,892 L 603,891 L 607,891 L 608,890 L 610,890 L 611,889 L 614,889 L 615,888 L 618,888 L 619,887 L 621,887 L 622,886 L 624,886 L 625,885 L 627,885 L 628,884 L 630,884 L 631,883 L 633,883 L 634,882 L 637,882 L 638,881 L 639,881 L 640,880 L 643,880 L 644,879 L 645,879 L 646,878 L 648,878 L 649,877 L 651,877 L 652,876 L 653,876 L 654,875 L 656,875 L 657,874 L 659,874 L 660,873 L 661,873 L 662,872 L 663,872 L 664,871 L 665,871 L 666,870 L 668,870 L 669,869 L 670,869 L 671,868 L 673,868 L 674,867 L 675,867 L 676,866 L 677,866 L 678,865 L 679,865 L 680,864 L 681,864 L 682,863 L 684,863 L 685,862 L 686,862 L 687,861 L 688,861 L 689,860 L 690,860 L 691,859 L 692,859 L 693,858 L 694,858 L 695,857 L 696,857 L 697,856 L 698,856 L 699,855 L 700,855 L 701,854 L 702,854 L 703,853 L 704,853 L 705,852 L 706,852 L 707,851 L 708,851 L 710,849 L 711,849 L 712,848 L 713,848 L 715,846 L 716,846 L 717,845 L 718,845 L 719,844 L 720,844 L 721,843 L 722,843 L 724,841 L 725,841 L 727,839 L 728,839 L 729,838 L 730,838 L 731,837 L 732,837 L 734,835 L 735,835 L 737,833 L 738,833 L 741,830 L 742,830 L 744,828 L 745,828 L 748,825 L 749,825 L 752,822 L 753,822 L 756,819 L 757,819 L 760,816 L 761,816 L 764,813 L 765,813 L 769,809 L 770,809 L 775,804 L 776,804 L 782,798 L 783,798 L 791,790 L 792,790 L 818,764 L 818,763 L 829,752 L 829,751 L 833,747 L 833,746 L 837,742 L 837,741 L 842,736 L 842,735 L 844,733 L 844,732 L 847,729 L 847,728 L 849,726 L 849,725 L 851,723 L 851,722 L 853,720 L 853,719 L 855,717 L 855,716 L 857,714 L 857,713 L 859,711 L 859,710 L 861,708 L 861,707 L 862,706 L 862,705 L 864,703 L 864,702 L 866,700 L 866,699 L 867,698 L 867,697 L 869,695 L 869,694 L 870,693 L 870,692 L 871,691 L 871,690 L 872,689 L 872,688 L 874,686 L 874,685 L 875,684 L 875,683 L 876,682 L 876,681 L 877,680 L 877,678 L 878,677 L 878,676 L 879,675 L 879,674 L 880,673 L 880,672 L 881,671 L 881,670 L 882,669 L 882,668 L 883,667 L 883,666 L 884,665 L 884,664 L 885,663 L 885,662 L 886,661 L 886,659 L 887,658 L 887,657 L 888,656 L 888,655 L 889,654 L 889,652 L 890,651 L 890,650 L 891,649 L 891,647 L 892,646 L 892,644 L 893,643 L 893,641 L 894,640 L 894,639 L 895,638 L 895,637 L 896,636 L 896,634 L 897,633 L 897,631 L 898,630 L 898,628 L 899,627 L 899,625 L 900,624 L 900,621 L 901,620 L 901,618 L 902,617 L 902,615 L 903,614 L 903,611 L 904,610 L 904,607 L 905,606 L 905,603 L 906,602 L 906,599 L 907,598 L 907,596 L 908,595 L 908,592 L 909,591 L 909,588 L 910,587 L 910,583 L 911,582 L 911,578 L 912,577 L 912,570 L 913,569 L 913,565 L 914,564 L 914,558 L 915,557 L 915,552 L 916,551 L 916,546 L 917,545 L 917,539 L 918,538 L 918,536 L 917,535 L 918,534 L 918,523 L 919,522 L 919,477 L 918,476 L 918,467 L 917,466 L 917,457 L 916,456 L 916,450 L 915,449 L 915,444 L 914,443 L 914,437 L 913,436 L 913,431 L 912,430 L 912,427 L 911,426 L 911,423 L 910,422 L 910,418 L 909,417 L 909,412 L 908,411 L 908,408 L 907,407 L 907,403 L 906,402 L 906,399 L 905,398 L 905,395 L 904,394 L 904,391 L 903,390 L 903,389 L 902,388 L 902,385 L 901,384 L 901,381 L 900,380 L 900,378 L 899,377 L 899,375 L 898,374 L 898,372 L 897,371 L 897,369 L 896,368 L 896,367 L 895,366 L 895,364 L 894,363 L 894,361 L 893,360 L 893,358 L 892,357 L 892,355 L 891,354 L 891,353 L 890,352 L 890,350 L 889,349 L 889,348 L 888,347 L 888,346 L 887,345 L 887,344 L 886,343 L 886,342 L 885,341 L 885,340 L 884,339 L 884,337 L 883,336 L 883,335 L 882,334 L 882,333 L 881,332 L 881,331 L 880,330 L 880,329 L 879,328 L 879,327 L 878,326 L 878,325 L 877,324 L 877,322 L 876,321 L 876,320 L 875,319 L 875,318 L 874,317 L 874,316 L 872,314 L 872,313 L 871,312 L 871,311 L 870,310 L 870,309 L 869,308 L 869,307 L 867,305 L 867,303 L 865,301 L 865,300 L 862,297 L 862,295 L 860,293 L 860,292 L 859,291 L 859,290 L 857,288 L 857,287 L 855,285 L 855,284 L 854,283 L 854,282 L 851,279 L 851,278 L 849,276 L 849,275 L 847,273 L 847,272 L 845,270 L 845,269 L 843,267 L 843,266 L 841,264 L 841,263 L 837,259 L 837,258 L 835,256 L 835,255 L 830,250 L 830,249 L 825,244 L 825,243 L 818,236 L 818,235 L 816,233 L 815,233 L 814,232 L 814,231 L 789,206 L 788,206 L 781,199 L 780,199 L 777,196 L 776,196 L 771,191 L 770,191 L 768,189 L 767,189 L 764,186 L 763,186 L 760,183 L 759,183 L 755,179 L 754,179 L 752,177 L 751,177 L 749,175 L 748,175 L 745,172 L 744,172 L 741,169 L 740,169 L 737,166 L 736,166 L 735,165 L 734,165 L 732,163 L 731,163 L 729,161 L 728,161 L 727,160 L 726,160 L 724,158 L 723,158 L 722,157 L 721,157 L 719,155 L 718,155 L 717,154 L 716,154 L 714,152 L 713,152 L 711,150 L 710,150 L 709,149 L 708,149 L 707,148 L 706,148 L 705,147 L 704,147 L 703,146 L 702,146 L 701,145 L 700,145 L 698,143 L 696,143 L 695,142 L 694,142 L 693,141 L 692,141 L 691,140 L 690,140 L 689,139 L 687,139 L 685,137 L 683,137 L 681,135 L 680,135 L 679,134 L 677,134 L 676,133 L 675,133 L 674,132 L 672,132 L 671,131 L 670,131 L 669,130 L 668,130 L 667,129 L 665,129 L 664,128 L 663,128 L 662,127 L 660,127 L 659,126 L 657,126 L 656,125 L 654,125 L 653,124 L 651,124 L 650,123 L 649,123 L 648,122 L 646,122 L 645,121 L 644,121 L 643,120 L 640,120 L 639,119 L 636,119 L 635,118 L 633,118 L 632,117 L 630,117 L 629,116 L 626,116 L 625,115 L 623,115 L 622,114 L 619,114 L 618,113 L 615,113 L 614,112 L 611,112 L 610,111 L 607,111 L 606,110 L 603,110 L 602,109 L 597,109 L 596,108 L 592,108 L 591,107 L 587,107 L 586,106 L 582,106 L 581,105 L 575,105 L 574,104 L 569,104 L 568,103 L 560,103 L 559,102 L 551,102 L 550,101 L 540,101 L 539,100 L 511,100 L 510,99 Z" fill="gold" stroke="gold" stroke-width="1"/>
</svg>
